<svg width="48" height="48" viewBox="0 0 48 48" fill="none" xmlns="http://www.w3.org/2000/svg">
<rect width="48" height="48" fill="white"/>
<path d="M35.2852 25.7882C35.7973 26.2595 36.4038 26.4952 37.1047 26.4952C37.819 26.4952 38.4255 26.2595 38.9241 25.7882C39.4363 25.3168 39.6924 24.7174 39.6924 23.9902C39.6924 23.2629 39.4363 22.6703 38.9241 22.2124C38.4255 21.741 37.819 21.5053 37.1047 21.5053C36.4038 21.5053 35.7973 21.741 35.2852 22.2124C34.773 22.6703 34.517 23.2629 34.517 23.9902C34.517 24.7174 34.773 25.3168 35.2852 25.7882Z" fill="#24252C"/>
<path fill-rule="evenodd" clip-rule="evenodd" d="M10.5075 13.5C4.70437 13.5 0 18.201 0 24C0 29.799 4.70437 34.5 10.5075 34.5H37.4925C43.2956 34.5 48 29.799 48 24C48 18.201 43.2956 13.5 37.4925 13.5H10.5075ZM37.4925 16.8333H10.5075C6.54663 16.8333 3.33571 20.042 3.33571 24C3.33571 27.958 6.54663 31.1667 10.5075 31.1667H37.4925C41.4534 31.1667 44.6643 27.958 44.6643 24C44.6643 20.042 41.4534 16.8333 37.4925 16.8333Z" fill="#24252C"/>
</svg>
