<svg width="193" height="48" viewBox="0 0 193 48" fill="none" xmlns="http://www.w3.org/2000/svg">
<path d="M51.0321 17H70.5154V20.6835H62.844V41.4479H58.6392V20.6835H51L51.0321 17ZM69.6808 23.7476H73.2758V27.1703H73.34C73.4684 26.6814 73.693 26.225 74.014 25.7687C74.335 25.3123 74.7202 24.8885 75.2016 24.53C75.651 24.1388 76.1646 23.8454 76.7423 23.6172C77.288 23.3891 77.8657 23.2587 78.4435 23.2587C78.8929 23.2587 79.2138 23.2913 79.3743 23.2913C79.5348 23.3239 79.7274 23.3565 79.8879 23.3565V27.1052C79.6311 27.04 79.3422 27.0074 79.0533 26.9748C78.7645 26.9422 78.5077 26.9096 78.2188 26.9096C77.5768 26.9096 76.967 27.04 76.3892 27.3007C75.8115 27.5615 75.33 27.9527 74.8806 28.4416C74.4634 28.9632 74.1103 29.5825 73.8535 30.3323C73.5967 31.082 73.4684 31.9621 73.4684 32.9401V41.3502H69.6166L69.6808 23.7476ZM97.5416 41.4479H93.7541V38.9706H93.6899C93.2084 39.8833 92.5023 40.5678 91.5714 41.122C90.6406 41.6761 89.6777 41.9369 88.7147 41.9369C86.4358 41.9369 84.7667 41.3828 83.7396 40.2093C82.7125 39.0683 82.1989 37.3081 82.1989 34.9937V23.7476H86.0506V34.6025C86.0506 36.1672 86.3395 37.2755 86.9494 37.8948C87.5271 38.5468 88.3617 38.8728 89.4209 38.8728C90.2233 38.8728 90.8974 38.7424 91.443 38.4816C91.9887 38.2208 92.4381 37.8948 92.759 37.4711C93.1121 37.0473 93.3368 36.5258 93.4973 35.939C93.6578 35.3523 93.722 34.7003 93.722 34.0158V23.7476H97.5737V41.4479H97.5416ZM104.09 35.776C104.218 36.9169 104.635 37.6993 105.373 38.1882C106.112 38.6446 107.01 38.8728 108.038 38.8728C108.391 38.8728 108.808 38.8402 109.257 38.775C109.707 38.7098 110.156 38.612 110.541 38.449C110.958 38.286 111.279 38.0578 111.536 37.7319C111.793 37.4059 111.921 37.0147 111.889 36.5258C111.857 36.0368 111.697 35.613 111.344 35.2871C110.991 34.9611 110.573 34.7329 110.06 34.5047C109.546 34.3091 108.936 34.1462 108.262 34.0158C107.588 33.8854 106.914 33.7224 106.208 33.5594C105.502 33.3964 104.796 33.2008 104.122 32.9727C103.448 32.7445 102.87 32.4511 102.324 32.0273C101.811 31.6362 101.361 31.1472 101.072 30.5279C100.751 29.9085 100.591 29.1914 100.591 28.2787C100.591 27.3007 100.816 26.5184 101.297 25.8665C101.746 25.2145 102.356 24.693 103.062 24.3018C103.769 23.9106 104.571 23.6172 105.438 23.4543C106.304 23.2913 107.139 23.2261 107.909 23.2261C108.808 23.2261 109.674 23.3239 110.477 23.5195C111.279 23.715 112.05 24.0084 112.692 24.4648C113.366 24.8885 113.911 25.4753 114.329 26.1598C114.778 26.8444 115.035 27.6919 115.163 28.6698H111.151C110.958 27.7245 110.541 27.1052 109.899 26.7792C109.225 26.4532 108.487 26.2902 107.62 26.2902C107.363 26.2902 107.01 26.3228 106.657 26.3554C106.272 26.4206 105.951 26.4858 105.598 26.6162C105.277 26.7466 104.988 26.9422 104.764 27.1703C104.539 27.3985 104.41 27.7245 104.41 28.1157C104.41 28.6046 104.571 28.9632 104.892 29.2566C105.213 29.5499 105.63 29.7781 106.176 30.0063C106.689 30.2019 107.299 30.3649 107.973 30.4953C108.647 30.6257 109.354 30.7886 110.06 30.9516C110.766 31.1146 111.44 31.3102 112.114 31.5384C112.788 31.7666 113.398 32.0599 113.911 32.4837C114.425 32.8749 114.874 33.3638 115.195 33.9506C115.516 34.5373 115.677 35.2871 115.677 36.1346C115.677 37.1777 115.452 38.0578 114.971 38.8076C114.489 39.5247 113.879 40.1441 113.141 40.6004C112.403 41.0568 111.536 41.3828 110.637 41.6109C109.707 41.8065 108.808 41.9369 107.909 41.9369C106.818 41.9369 105.791 41.8065 104.86 41.5457C103.929 41.285 103.094 40.8938 102.42 40.4048C101.746 39.8833 101.201 39.2639 100.816 38.4816C100.43 37.7319 100.206 36.8191 100.174 35.7434H104.057V35.776H104.09ZM116.768 23.7476H119.689V18.4017H123.541V23.715H127.007V26.6162H123.541V36.0694C123.541 36.4932 123.573 36.8191 123.605 37.1451C123.637 37.4385 123.733 37.6993 123.83 37.8948C123.958 38.0904 124.151 38.2534 124.375 38.3512C124.632 38.449 124.953 38.5142 125.402 38.5142C125.659 38.5142 125.948 38.5142 126.205 38.4816C126.462 38.449 126.75 38.4164 127.007 38.3512V41.3828C126.59 41.4479 126.173 41.4805 125.755 41.5131C125.338 41.5783 124.953 41.5783 124.504 41.5783C123.476 41.5783 122.674 41.4805 122.064 41.285C121.454 41.0894 120.973 40.796 120.62 40.4374C120.267 40.0463 120.042 39.5899 119.914 39.0358C119.785 38.4816 119.721 37.7971 119.689 37.0799V26.6488H116.768V23.7476ZM129.703 23.7476H133.33V26.1598H133.395C133.94 25.1167 134.679 24.3996 135.641 23.9432C136.604 23.4869 137.632 23.2587 138.787 23.2587C140.167 23.2587 141.355 23.4869 142.382 24.0084C143.409 24.4974 144.244 25.1493 144.918 26.0294C145.592 26.877 146.105 27.8875 146.426 29.0284C146.747 30.1693 146.94 31.408 146.94 32.6793C146.94 33.9506 146.779 35.0263 146.491 36.1346C146.17 37.2429 145.72 38.2534 145.11 39.1009C144.5 39.9485 143.73 40.633 142.767 41.1546C141.804 41.6761 140.713 41.9369 139.429 41.9369C138.883 41.9369 138.306 41.8717 137.76 41.7739C137.214 41.6761 136.669 41.5131 136.155 41.285C135.641 41.0568 135.16 40.7634 134.743 40.4048C134.293 40.0463 133.94 39.6225 133.651 39.1661H133.587V48H129.736V23.7476H129.703ZM143.152 32.6141C143.152 31.8318 143.056 31.0494 142.831 30.2997C142.639 29.5499 142.318 28.898 141.901 28.3113C141.483 27.7245 140.97 27.2681 140.392 26.9096C139.782 26.551 139.076 26.388 138.306 26.388C136.701 26.388 135.481 26.9422 134.646 28.0831C133.844 29.224 133.427 30.756 133.427 32.6467C133.427 33.5594 133.523 34.3743 133.748 35.1241C133.972 35.8738 134.261 36.5258 134.711 37.0799C135.128 37.6341 135.642 38.0578 136.251 38.3838C136.861 38.7098 137.535 38.8728 138.338 38.8728C139.236 38.8728 139.943 38.6772 140.552 38.3186C141.162 37.96 141.644 37.4711 142.061 36.9169C142.446 36.3302 142.735 35.6782 142.896 34.9285C143.056 34.1462 143.152 33.3964 143.152 32.6141ZM149.925 17H153.777V20.6835H149.925V17ZM149.925 23.7476H153.777V41.4479H149.925V23.7476ZM157.211 17H161.063V41.4479H157.211V17ZM172.811 41.9369C171.43 41.9369 170.179 41.7087 169.087 41.2198C167.996 40.7308 167.097 40.1115 166.327 39.2965C165.589 38.4816 165.011 37.4711 164.626 36.3302C164.241 35.1893 164.016 33.918 164.016 32.5815C164.016 31.245 164.208 30.0063 164.626 28.8654C165.011 27.7245 165.589 26.7466 166.327 25.8991C167.065 25.0841 167.996 24.4322 169.087 23.9758C170.179 23.5195 171.43 23.2587 172.811 23.2587C174.191 23.2587 175.443 23.4869 176.534 23.9758C177.625 24.4322 178.524 25.0841 179.294 25.8991C180.033 26.714 180.61 27.7245 180.995 28.8654C181.381 30.0063 181.605 31.245 181.605 32.5815C181.605 33.918 181.413 35.1893 180.995 36.3302C180.578 37.4711 180.033 38.449 179.294 39.2965C178.556 40.1115 177.625 40.7634 176.534 41.2198C175.443 41.6761 174.223 41.9369 172.811 41.9369ZM172.811 38.8402C173.645 38.8402 174.415 38.6446 175.025 38.286C175.667 37.9274 176.149 37.4385 176.566 36.8517C176.983 36.265 177.272 35.5804 177.465 34.8633C177.657 34.1136 177.754 33.3638 177.754 32.5815C177.754 31.7992 177.657 31.082 177.465 30.3323C177.272 29.5825 176.983 28.9306 176.566 28.3438C176.149 27.7571 175.635 27.3007 175.025 26.9422C174.383 26.5836 173.645 26.388 172.811 26.388C171.976 26.388 171.206 26.5836 170.596 26.9422C169.954 27.3007 169.472 27.7897 169.055 28.3438C168.638 28.9306 168.349 29.5825 168.156 30.3323C167.964 31.082 167.868 31.8318 167.868 32.5815C167.868 33.3312 167.964 34.1136 168.156 34.8633C168.349 35.613 168.638 36.265 169.055 36.8517C169.472 37.4385 169.986 37.9274 170.596 38.286C171.238 38.6772 171.976 38.8402 172.811 38.8402ZM182.761 23.7476H185.682V18.4017H189.533V23.715H193V26.6162H189.533V36.0694C189.533 36.4932 189.566 36.8191 189.598 37.1451C189.63 37.4385 189.726 37.6993 189.822 37.8948C189.951 38.0904 190.143 38.2534 190.368 38.3512C190.625 38.449 190.946 38.5142 191.395 38.5142C191.652 38.5142 191.941 38.5142 192.198 38.4816C192.454 38.449 192.743 38.4164 193 38.3512V41.3828C192.583 41.4479 192.165 41.4805 191.748 41.5131C191.331 41.5783 190.946 41.5783 190.496 41.5783C189.469 41.5783 188.667 41.4805 188.057 41.285C187.447 41.0894 186.966 40.796 186.613 40.4374C186.259 40.0463 186.035 39.5899 185.906 39.0358C185.778 38.4816 185.714 37.7971 185.682 37.0799V26.6488H182.761V23.7476Z" fill="white"/>
<path d="M28.4259 17.1962H46L31.7871 27.8038L31.788 27.8067L23.6571 33.4286L32.894 31.3223L37.1969 45L22.984 34.3594L8.77105 45L14.2129 27.8038L0 17.1632L17.5741 17.1962L23.016 0L28.4259 17.1962Z" fill="#00B67A"/>
</svg>
